# File created by Blade
# Date/Time:  Thu Jan 22 19:49:10 2015
#---------------------------------------------------------
:version 1.10
:name HOM
:units
  mass 1.0
  length 1.000000
  angle deg
:documentation
     Acclaim Skeleton File
:root
   axis xyz
   order TX TY TZ RX RY RZ
   position 0.000000 0.000000 0.000000
   orientation 0 0 0
:bonedata
   begin
      id 1
      name RightUpLeg_dum
      direction -1.000000 0.000000 0.000000
      length 4.478084
      axis 0.0 0.0 0.0 xyz
   end
   begin
      id 2
      name LeftUpLeg_dum
      direction 1.000000 0.000000 0.000000
      length 4.478084
      axis 0.0 0.0 0.0 xyz
   end
   begin
      id 3
      name Spine_dum
      direction 0.000000 1.000000 0.000000
      length 6.068208
      axis 0.0 0.0 0.0 xyz
   end
   begin
      id 4
      name RightUpLeg
      direction 0.000000 -1.000000 0.000000
      length 16.405774
      axis 0.0 0.0 0.0 xyz
      dof rx ry rz
   end
   begin
      id 5
      name RightLeg
      direction 0.000000 -1.000000 0.000000
      length 14.644143
      axis 0.0 0.0 0.0 xyz
      dof rx ry rz
   end
   begin
      id 6
      name RightFoot
      direction 0.000000 -0.258819 0.965926
      length 5.806150
      axis 15.0 0.0 0.0 xyz
      dof rx ry rz
   end
   begin
      id 7
      name RightToeBase
      direction 0.000000 0.000000 1.000000
      length 2.952750
      axis 0.0 0.0 0.0 xyz
      dof rx ry rz
   end
   begin
      id 8
      name LeftUpLeg
      direction 0.000000 -1.000000 0.000000
      length 16.405774
      axis 0.0 0.0 0.0 xyz
      dof rx ry rz
   end
   begin
      id 9
      name LeftLeg
      direction 0.000000 -1.000000 0.000000
      length 14.644143
      axis 0.0 0.0 0.0 xyz
      dof rx ry rz
   end
   begin
      id 10
      name LeftFoot
      direction 0.000000 -0.258819 0.965926
      length 5.806150
      axis 15.0 0.0 0.0 xyz
      dof rx ry rz
   end
   begin
      id 11
      name LeftToeBase
      direction 0.000000 0.000000 1.000000
      length 2.952750
      axis 0.0 0.0 0.0 xyz
      dof rx ry rz
   end
   begin
      id 12
      name Spine
      direction 0.000000 1.000000 0.000000
      length 0.000000
      axis 0.0 0.0 0.0 xyz
      dof rx ry rz
   end
   begin
      id 13
      name Spine_dum1
      direction 0.000000 1.000000 0.000000
      length 10.013923
      axis 0.0 0.0 0.0 xyz
   end
   begin
      id 14
      name Spine_dum2
      direction 0.000000 1.000000 0.000000
      length 10.013923
      axis 0.0 0.0 0.0 xyz
   end
   begin
      id 15
      name Spine_dum3
      direction 0.000000 1.000000 0.000000
      length 15.777476
      axis 0.0 0.0 0.0 xyz
   end
   begin
      id 16
      name RightShoulder
      direction -1.000000 0.000000 0.000000
      length 7.190220
      axis 0.0 0.0 90.0 xyz
      dof rx ry rz
   end
   begin
      id 17
      name RightArm
      direction -1.000000 0.000000 0.000000
      length 10.177469
      axis 0.0 0.0 90.0 xyz
      dof rx ry rz
   end
   begin
      id 18
      name RightForeArm
      direction -1.000000 0.000000 0.000000
      length 8.392114
      axis 0.0 0.0 90.0 xyz
      dof ry rz rx
   end
   begin
      id 19
      name RightHand
      direction -1.000000 0.000000 0.000000
      length 0.000000
      axis 0.0 0.0 90.0 xyz
      dof rx ry rz
   end
   begin
      id 20
      name RightHand_dum1
      direction -1.000000 0.000000 0.000000
      length 3.937000
      axis 0.0 0.0 90.0 xyz
   end
   begin
      id 21
      name RightHand_dum2
      direction 0.000000 0.000000 0.000000
      length 0.000000
      axis 0.0 0.0 90.0 xyz
   end
   begin
      id 22
      name RightHandThumb1
      direction 0.000000 0.000000 1.000000
      length 3.937000
      axis 0.0 0.0 90.0 xyz
      dof rx rz ry
   end
   begin
      id 23
      name LeftShoulder
      direction 1.000000 0.000000 0.000000
      length 7.190220
      axis 0.0 0.0 -90.0 xyz
      dof rx ry rz
   end
   begin
      id 24
      name LeftArm
      direction 1.000000 0.000000 0.000000
      length 10.177469
      axis 0.0 0.0 -90.0 xyz
      dof rx ry rz
   end
   begin
      id 25
      name LeftForeArm
      direction 1.000000 0.000000 0.000000
      length 8.392114
      axis 0.0 0.0 -90.0 xyz
      dof ry rz rx
   end
   begin
      id 26
      name LeftHand
      direction 1.000000 0.000000 0.000000
      length 0.000000
      axis 0.0 0.0 -90.0 xyz
      dof rx ry rz
   end
   begin
      id 27
      name LeftHand_dum1
      direction 1.000000 0.000000 0.000000
      length 3.937000
      axis 0.0 0.0 -90.0 xyz
   end
   begin
      id 28
      name LeftHand_dum2
      direction 0.000000 0.000000 0.000000
      length 0.000000
      axis 0.0 0.0 -90.0 xyz
   end
   begin
      id 29
      name LeftHandThumb1
      direction 0.000000 0.000000 1.000000
      length 3.937000
      axis 0.0 0.0 -90.0 xyz
      dof rx rz ry
   end
   begin
      id 30
      name Head
      direction 0.000000 1.000000 0.000000
      length 4.527550
      axis 0.0 0.0 0.0 xyz
      dof rx ry rz
   end
:hierarchy
   begin
      root RightUpLeg_dum LeftUpLeg_dum Spine_dum
      RightUpLeg_dum RightUpLeg
      LeftUpLeg_dum LeftUpLeg
      Spine_dum Spine
      RightUpLeg RightLeg
      RightLeg RightFoot
      RightFoot RightToeBase
      LeftUpLeg LeftLeg
      LeftLeg LeftFoot
      LeftFoot LeftToeBase
      Spine Spine_dum1 Spine_dum2 Spine_dum3
      Spine_dum1 RightShoulder
      Spine_dum2 LeftShoulder
      Spine_dum3 Head
      RightShoulder RightArm
      RightArm RightForeArm
      RightForeArm RightHand
      RightHand RightHand_dum1 RightHand_dum2
      RightHand_dum2 RightHandThumb1
      LeftShoulder LeftArm
      LeftArm LeftForeArm
      LeftForeArm LeftHand
      LeftHand LeftHand_dum1 LeftHand_dum2
      LeftHand_dum2 LeftHandThumb1
   end

# File created by Blade
# Date/Time:  Thu Jan 22 19:49:01 2015
# Frame Rate: 120.000 fps
#------------------------------------------------------
:FULLY-SPECIFIED
:DEGREES
362
root -2.622330 19.805284 -5.947002 42.236928 -0.042260 2.827864
RightUpLeg -115.651043 -24.135429 18.472644
RightLeg 107.870236 -0.000000 -0.000000
RightFoot -39.580237 0.585594 -4.247910
RightToeBase -4.282357 -0.000000 0.000000
LeftUpLeg -114.979431 28.934433 -17.777211
LeftLeg 104.170649 -0.000000 -0.000000
LeftFoot -32.681272 -12.116513 -14.434302
LeftToeBase 5.234101 -0.000000 -0.000000
Spine 6.496005 -4.489738 -3.670446
RightShoulder 5.077500 21.128898 -29.987463
RightArm 65.001040 4.934793 78.009026
RightForeArm -6.144199 0.000000 69.922003
RightHand 21.680682 -0.000000 -31.537823
RightHandThumb1 -24.326973 -0.000000 -32.862282
LeftShoulder -2.346972 -25.029266 30.978455
LeftArm 56.377143 -2.972384 -84.718407
LeftForeArm 21.236149 -0.000000 78.359343
LeftHand 2.903685 0.000000 10.002554
LeftHandThumb1 -26.253704 0.000000 33.147579
Head -56.291539 -1.137739 0.596135
363
root -2.585851 19.504279 -5.976360 42.478453 0.015075 2.831710
RightUpLeg -116.882629 -24.146968 18.530102
RightLeg 109.147167 -0.000000 -0.000000
RightFoot -39.719405 0.639333 -4.153125
RightToeBase -4.260840 -0.000000 0.000000
LeftUpLeg -116.212490 28.859630 -17.897005
LeftLeg 105.463951 -0.000000 -0.000000
LeftFoot -32.927911 -12.266650 -14.305301
LeftToeBase 5.161583 -0.000000 -0.000000
Spine 6.597894 -4.526301 -3.692166
RightShoulder 5.153304 21.118618 -30.000961
RightArm 64.998588 5.074709 77.855219
RightForeArm -6.291276 -0.000000 70.456828
RightHand 21.742952 -0.000000 -31.884449
RightHandThumb1 -24.326973 -0.000000 -32.862282
LeftShoulder -2.192458 -25.192549 30.885871
LeftArm 56.308097 -2.973082 -84.709867
LeftForeArm 21.515290 -0.000000 78.964657
LeftHand 2.868069 -0.000000 10.240617
LeftHandThumb1 -26.253704 0.000000 33.147579
Head -56.525986 -1.209394 0.629746
364
root -2.555018 19.206535 -6.002755 42.716016 0.092679 2.821265
RightUpLeg -118.084104 -24.147287 18.598046
RightLeg 110.403550 -0.000000 -0.000000
RightFoot -39.839432 0.677256 -4.043441
RightToeBase -4.242719 -0.000000 0.000000
LeftUpLeg -117.469958 28.802768 -18.039983
LeftLeg 106.737672 -0.000000 -0.000000
LeftFoot -33.124657 -12.392041 -14.146744
LeftToeBase 4.952781 -0.000000 -0.000000
Spine 6.703732 -4.552673 -3.694463
RightShoulder 5.199831 21.086586 -29.992126
RightArm 65.049930 5.198463 77.732865
RightForeArm -6.447189 -0.000000 70.914973
RightHand 21.965270 0.000000 -32.309882
RightHandThumb1 -24.326973 -0.000000 -32.862282
LeftShoulder -2.064131 -25.329672 30.781029
LeftArm 56.292976 -2.941706 -84.643933
LeftForeArm 21.678395 0.000000 79.531876
LeftHand 2.789129 -0.000000 10.463041
LeftHandThumb1 -26.253704 0.000000 33.147579
Head -56.768543 -1.268702 0.660883
365
root -2.519537 18.907558 -6.025862 42.908041 0.205809 2.829133
RightUpLeg -119.265413 -24.230856 18.677328
RightLeg 111.654184 -0.000000 -0.000000
RightFoot -39.929271 0.699946 -4.013827
RightToeBase -4.636659 -0.000000 0.000000
LeftUpLeg -118.639422 28.700129 -18.115485
LeftLeg 108.008248 -0.000000 -0.000000
LeftFoot -33.349900 -12.498917 -14.020018
LeftToeBase 4.822708 -0.000000 -0.000000
Spine 6.853000 -4.660843 -3.655931
RightShoulder 5.313718 21.182183 -29.976127
RightArm 64.995331 5.324071 77.578753
RightForeArm -6.683085 -0.000000 71.370614
RightHand 21.981595 0.000000 -32.812920
RightHandThumb1 -24.326973 -0.000000 -32.862282
LeftShoulder -1.977186 -25.532559 30.721730
LeftArm 56.145327 -2.943766 -84.627969
LeftForeArm 21.872130 -0.000000 80.104698
LeftHand 2.672153 -0.000000 10.640385
LeftHandThumb1 -26.253704 0.000000 33.147579
Head -57.015467 -1.326058 0.682117
366
root -2.489828 18.608936 -6.046886 43.118214 0.295014 2.825594
RightUpLeg -120.435279 -24.251414 18.703062
RightLeg 112.889197 -0.000000 -0.000000
RightFoot -40.098650 0.684962 -3.913108
RightToeBase -4.383083 -0.000000 0.000000
LeftUpLeg -119.858574 28.652027 -18.249086
LeftLeg 109.259947 -0.000000 -0.000000
LeftFoot -33.551819 -12.630031 -13.868139
LeftToeBase 4.763365 -0.000000 -0.000000
Spine 6.949424 -4.681870 -3.658812
RightShoulder 5.386075 21.185025 -29.935182
RightArm 65.005000 5.450863 77.448773
RightForeArm -6.691401 -0.000000 71.774426
RightHand 21.925544 -0.000000 -33.177634
RightHandThumb1 -24.326973 -0.000000 -32.862282
LeftShoulder -1.830840 -25.493035 30.621223
LeftArm 56.321760 -2.941753 -84.602834
LeftForeArm 21.985595 -0.000000 80.542161
LeftHand 2.559084 -0.000000 10.952434
LeftHandThumb1 -26.253704 0.000000 33.147579
Head -57.201305 -1.360063 0.750180
367
root -2.463635 18.309893 -6.066318 43.312572 0.388374 2.803992
RightUpLeg -121.588813 -24.263260 18.764347
RightLeg 114.127669 -0.000000 -0.000000
RightFoot -40.174120 0.594225 -3.910715
RightToeBase -4.576124 -0.000000 0.000000
LeftUpLeg -121.081698 28.635365 -18.371531
LeftLeg 110.500356 -0.000000 -0.000000
LeftFoot -33.696577 -12.788074 -13.751689
LeftToeBase 4.592574 -0.000000 -0.000000
Spine 7.055113 -4.724592 -3.644566
RightShoulder 5.482951 21.243347 -29.886015
RightArm 65.022017 5.525061 77.413086
RightForeArm -6.515262 -0.000000 72.111828
RightHand 22.131330 -0.000000 -33.826886
RightHandThumb1 -24.326973 -0.000000 -32.862282
LeftShoulder -1.741637 -25.646695 30.615243
LeftArm 56.235917 -2.952108 -84.609715
LeftForeArm 21.999670 0.000000 80.982612
LeftHand 2.490805 -0.000000 11.349837
LeftHandThumb1 -26.253704 0.000000 33.147579
Head -57.400484 -1.377200 0.796404
368
root -2.436319 18.012623 -6.083723 43.492622 0.489163 2.797347
RightUpLeg -122.705796 -24.292886 18.759258
RightLeg 115.341870 -0.000000 -0.000000
RightFoot -40.321014 0.671637 -3.662038
RightToeBase -4.496745 -0.000000 0.000000
LeftUpLeg -122.289815 28.614221 -18.508604
LeftLeg 111.720855 -0.000000 -0.000000
LeftFoot -33.839871 -12.913537 -13.596992
LeftToeBase 4.498992 -0.000000 -0.000000
Spine 7.167759 -4.776478 -3.628483
RightShoulder 5.577247 21.305055 -29.886122
RightArm 64.987390 5.649507 77.321660
RightForeArm -6.424438 -0.000000 72.465911
RightHand 22.142876 -0.000000 -34.400765
RightHandThumb1 -24.326973 -0.000000 -32.862282
LeftShoulder -1.636496 -25.776730 30.560444
LeftArm 56.203033 -2.988448 -84.585274
LeftForeArm 21.998159 -0.000000 81.374991
LeftHand 2.437685 0.000000 11.626317
LeftHandThumb1 -26.253704 0.000000 33.147579
Head -57.603472 -1.389747 0.872521
369
root -2.414286 17.714475 -6.096838 43.641361 0.585338 2.771355
RightUpLeg -123.772151 -24.306569 18.754144
RightLeg 116.557825 -0.000000 -0.000000
RightFoot -40.385132 0.558534 -3.668654
RightToeBase -4.864826 -0.000000 0.000000
LeftUpLeg -123.488721 28.641893 -18.621499
LeftLeg 112.937996 -0.000000 -0.000000
LeftFoot -33.913801 -13.074967 -13.456115
LeftToeBase 4.338105 -0.000000 -0.000000
Spine 7.296264 -4.779734 -3.602504
RightShoulder 5.629605 21.380552 -29.878842
RightArm 64.973435 5.722787 77.341939
RightForeArm -6.432873 -0.000000 72.745204
RightHand 22.132979 0.000000 -34.646173
RightHandThumb1 -24.326973 -0.000000 -32.862282
LeftShoulder -1.558039 -25.859509 30.511525
LeftArm 56.261435 -3.011080 -84.640936
LeftForeArm 21.873306 -0.000000 81.643198
LeftHand 2.558700 -0.000000 11.827910
LeftHandThumb1 -26.253704 0.000000 33.147579
Head -57.794573 -1.411151 0.884738
370
root -2.389449 17.419155 -6.107435 43.750852 0.705717 2.771985
RightUpLeg -124.802841 -24.383558 18.718298
RightLeg 117.759954 -0.000000 -0.000000
RightFoot -40.464650 0.535135 -3.578557
RightToeBase -5.099405 -0.000000 0.000000
LeftUpLeg -124.589445 28.630213 -18.680547
LeftLeg 114.115774 -0.000000 -0.000000
LeftFoot -34.003735 -13.255106 -13.390038
LeftToeBase 4.233003 -0.000000 -0.000000
Spine 7.473100 -4.853620 -3.587029
RightShoulder 5.700273 21.554842 -29.853378
RightArm 64.910755 5.768985 77.402835
RightForeArm -6.356684 -0.000000 72.966117
RightHand 22.281751 -0.000000 -35.290594
RightHandThumb1 -24.326973 -0.000000 -32.862282
LeftShoulder -1.504168 -26.012420 30.534252
LeftArm 56.185116 -3.052336 -84.726178
LeftForeArm 21.855132 -0.000000 81.982212
LeftHand 2.394093 -0.000000 12.008961
LeftHandThumb1 -26.253704 0.000000 33.147579
Head -58.005718 -1.409197 0.974307
371
root -2.365606 17.125156 -6.116632 43.863180 0.822434 2.798685
RightUpLeg -125.853559 -24.469129 18.686002
RightLeg 118.949445 -0.000000 -0.000000
RightFoot -40.527996 0.403422 -3.561347
RightToeBase -5.430819 -0.000000 0.000000
LeftUpLeg -125.690582 28.610380 -18.767870
LeftLeg 115.282944 -0.000000 -0.000000
LeftFoot -34.065527 -13.441268 -13.323392
LeftToeBase 4.238986 -0.000000 -0.000000
Spine 7.622727 -4.927374 -3.593435
RightShoulder 5.763066 21.595109 -29.847349
RightArm 64.961518 5.845838 77.409746
RightForeArm -6.346858 0.000000 73.160301
RightHand 22.238241 -0.000000 -35.773180
RightHandThumb1 -24.326973 -0.000000 -32.862282
LeftShoulder -1.452462 -26.055630 30.501269
LeftArm 56.273342 -3.095887 -84.799966
LeftForeArm 21.880428 -0.000000 82.198384
LeftHand 2.376900 -0.000000 12.189483
LeftHandThumb1 -26.253704 0.000000 33.147579
Head -58.189414 -1.371993 0.996392
372
root -2.343806 16.829969 -6.123778 43.895027 0.942540 2.806863
RightUpLeg -126.821199 -24.580492 18.625937
RightLeg 120.116130 -0.000000 -0.000000
RightFoot -40.680981 0.565015 -3.172249
RightToeBase -5.183427 -0.000000 0.000000
LeftUpLeg -126.712870 28.637741 -18.779543
LeftLeg 116.433407 -0.000000 -0.000000
LeftFoot -34.116974 -13.613189 -13.215015
LeftToeBase 4.151196 -0.000000 -0.000000
Spine 7.849081 -5.007349 -3.583056
RightShoulder 5.861035 21.693064 -29.842614
RightArm 65.006570 5.910735 77.578834
RightForeArm -6.311306 -0.000000 73.303479
RightHand 22.327032 -0.000000 -36.153923
RightHandThumb1 -24.326973 -0.000000 -32.862282
LeftShoulder -1.398093 -26.174675 30.521569
LeftArm 56.226152 -3.221722 -84.883704
LeftForeArm 21.610023 0.000000 82.406821
LeftHand 2.602948 -0.000000 12.240495
LeftHandThumb1 -26.253704 0.000000 33.147579
Head -58.334358 -1.362084 1.049310
373
root -2.327328 16.538106 -6.127649 43.940060 1.034399 2.776189
RightUpLeg -127.722928 -24.610114 18.516691
RightLeg 121.268741 -0.000000 -0.000000
RightFoot -40.752491 0.422983 -3.105745
RightToeBase -5.425688 -0.000000 0.000000
LeftUpLeg -127.780372 28.712922 -18.842089
LeftLeg 117.573723 -0.000000 -0.000000
LeftFoot -34.169689 -13.769350 -13.151230
LeftToeBase 4.208392 -0.000000 -0.000000
Spine 8.033598 -5.032932 -3.584000
RightShoulder 5.930198 21.792966 -29.836509
RightArm 65.019748 5.957586 77.709761
RightForeArm -6.470331 -0.000000 73.388036
RightHand 22.553545 -0.000000 -36.860915
RightHandThumb1 -24.326973 -0.000000 -32.862282
LeftShoulder -1.329121 -26.230520 30.509313
LeftArm 56.292870 -3.284740 -84.992671
LeftForeArm 21.728673 -0.000000 82.557752
LeftHand 2.472918 -0.000000 12.588921
LeftHandThumb1 -26.253704 0.000000 33.147579
Head -58.461377 -1.312726 1.065734
